<?xml version="1.0" encoding="UTF-8" standalone="no"?>
<!-- Created with Inkscape (http://www.inkscape.org/) -->

<svg
   width="107.95827mm"
   height="59.346767mm"
   viewBox="0 0 107.95827 59.346767"
   version="1.1"
   id="svg1"
   xml:space="preserve"
   inkscape:version="1.3.2 (091e20e, 2023-11-25, custom)"
   sodipodi:docname="quillquestLogo.svg"
   xmlns:inkscape="http://www.inkscape.org/namespaces/inkscape"
   xmlns:sodipodi="http://sodipodi.sourceforge.net/DTD/sodipodi-0.dtd"
   xmlns="http://www.w3.org/2000/svg"
   xmlns:svg="http://www.w3.org/2000/svg"><sodipodi:namedview
     id="namedview1"
     pagecolor="#505050"
     bordercolor="#eeeeee"
     borderopacity="1"
     inkscape:showpageshadow="0"
     inkscape:pageopacity="0"
     inkscape:pagecheckerboard="0"
     inkscape:deskcolor="#d1d1d1"
     inkscape:document-units="mm"
     inkscape:zoom="1.0343421"
     inkscape:cx="-3483.857"
     inkscape:cy="-80.727643"
     inkscape:window-width="1920"
     inkscape:window-height="1017"
     inkscape:window-x="-8"
     inkscape:window-y="-8"
     inkscape:window-maximized="1"
     inkscape:current-layer="layer1" /><defs
     id="defs1" /><g
     inkscape:label="Layer 1"
     inkscape:groupmode="layer"
     id="layer1"
     transform="translate(1261.3738,503.2617)"><rect
       style="fill:#264946;fill-opacity:1;stroke:none;stroke-width:1.12707;stroke-linecap:round;stroke-dasharray:none;stroke-dashoffset:0;paint-order:stroke fill markers"
       id="rect9"
       width="714.53156"
       height="123.99255"
       x="-1341.3837"
       y="-542.18011"
       ry="3.4466102" /><path
       id="text9-5-6"
       style="font-size:17.9127px;line-height:1.25;font-family:'Blackadder ITC';-inkscape-font-specification:'Blackadder ITC, Normal';fill:#e1e0cd;fill-opacity:1;stroke:none;stroke-width:1.05833;stroke-dasharray:none"
       d="m -1241.7683,-503.26095 v 0.12688 l -1.6084,0.22078 -0.126,0.34666 -0.2208,0.12569 -0.821,0.0951 c -0.4522,0.30496 -0.7991,0.49395 -1.041,0.56755 -0.7781,0.51526 -1.361,0.91546 -1.7501,1.19939 h -0.3793 l -0.5675,-0.47342 c -0.5363,-0.17859 -0.9782,-0.24188 -1.3252,-0.18928 l -0.5676,-0.28438 -1.1668,0.22079 -0.5684,-0.1257 -1.1668,0.25169 c -1.157,-0.23119 -1.7302,-0.34669 -1.7193,-0.34669 h -0.8202 c -0.4311,0.11559 -0.778,0.30464 -1.0409,0.56753 l -0.4417,0.12688 -0.3467,0.31501 -2.0828,0.69426 -0.094,0.12569 c -0.6835,0.36805 -1.1937,0.67331 -1.5302,0.91516 l -0.2208,0.58337 v 0.59923 c 0.3786,0.43113 0.6838,0.6947 0.9152,0.78934 l 0.2368,0.47342 c 1.2724,0.29448 1.9343,0.44079 1.9868,0.44079 h 0.9152 l 0.5675,-0.22078 0.7884,-0.8201 c 0.4101,-0.17888 0.7154,-0.32606 0.9152,-0.44171 l 0.1268,-0.56756 -0.1268,-0.47342 -0.7884,-0.58336 c -0.3575,-0.063 -0.8944,0.17383 -1.6095,0.71013 v 0.91421 h -0.2199 c -0.1577,0.15778 -0.3583,0.30502 -0.6001,0.44171 -0.6835,-0.0945 -1.1778,-0.28348 -1.4827,-0.56753 l -0.126,-0.44174 0.126,-0.34665 c 0.9254,-0.91484 2.4187,-1.68769 4.4797,-2.31863 1.0306,0.0945 1.7511,0.21009 2.1611,0.34669 0.4312,-0.12629 0.7568,-0.21039 0.9776,-0.25258 0.4732,0.29447 1.0944,0.46302 1.862,0.50509 0.4627,0.26298 0.7564,0.48382 0.8825,0.66259 l -0.126,0.34668 -0.2207,0.22078 -0.3467,0.14174 -0.2208,0.44172 c 0.012,0.0945 -0.012,0.37859 -0.063,0.85177 l -0.4734,0.37836 -0.032,0.28438 -0.126,0.22078 -0.4734,0.12688 c -0.3576,0.62042 -0.6521,1.07203 -0.8835,1.35595 -0.4837,0.87276 -0.725,2.10884 -0.725,3.70718 l 0.126,0.12569 0.2207,0.91513 c -0.1681,0.36805 -0.2311,0.84096 -0.1892,1.4193 l 0.3783,0.63091 -0.094,0.69429 0.3784,0.1257 0.2208,1.04094 h 0.2525 l 0.4409,0.56755 0.6942,0.22079 0.4734,0.48925 0.7884,0.22078 c 0.4627,0.4101 0.9259,0.91499 1.3886,1.51437 0.7466,0.30493 1.2985,0.47793 1.656,0.52001 0.5573,0.0422 1.1146,0.09 1.6719,0.14263 l 1.0409,-0.34761 0.9459,0.34761 c 0.5679,-0.0948 1.1784,-0.28467 1.8303,-0.56848 l 0.5834,0.12659 c 0.5678,-0.37854 0.9467,-0.6838 1.136,-0.91513 l 0.3467,-0.1257 0.1893,0.44172 0.5675,0.37836 0.1902,0.66258 c 0.7361,0.46269 1.4929,1.11395 2.2711,1.95518 l 0.9459,0.44171 0.3476,0.47342 1.2776,0.34761 0.1893,0.7092 -0.8834,0.0951 v 0.25258 c -0.305,0.0422 -0.5419,0.0731 -0.7101,0.0942 -1.4302,0.36801 -2.502,0.6413 -3.217,0.82007 -0.5258,0.19968 -0.9154,0.35774 -1.1677,0.47342 -0.347,0.0526 -0.6097,0.0847 -0.7884,0.0951 -0.673,0.19969 -1.1832,0.35682 -1.5302,0.4725 v 0.22078 c -0.1997,0.16819 -0.4625,0.32618 -0.7884,0.47339 -1.1147,-0.063 -2.2611,0.12599 -3.4388,0.56756 -0.095,0.0945 -0.2526,0.16818 -0.4734,0.22078 v 0.12658 c -0.7572,0.14709 -1.3401,0.22079 -1.7502,0.22079 -1.2198,0.29447 -2.1346,0.52509 -2.7445,0.69333 l -0.3476,-0.12569 -1.1351,0.25258 c -0.7886,-0.16819 -1.3671,-0.25258 -1.7352,-0.25258 -0.5783,-0.13669 -1.0149,-0.25198 -1.3093,-0.34668 l -1.041,-0.85175 -0.1893,-0.85178 c 0.3471,-0.34701 0.5361,-0.57861 0.5676,-0.69429 l 0.2207,-0.12569 0.4418,-0.0318 0.4734,-0.47342 h 0.8676 l 0.6309,0.37836 c 0.2734,0.49422 0.4304,0.81012 0.4725,0.94684 l 0.6001,0.44171 0.2199,0.34669 0.3477,0.12569 0.4417,-0.12569 c 0.021,-0.0948 0.032,-0.20028 0.032,-0.31593 0,-0.90432 -0.4632,-1.75616 -1.3886,-2.55531 l -0.2526,-0.56755 c -0.095,-0.0422 -0.3572,-0.12094 -0.7884,-0.23683 h -1.0568 c -0.042,0.14709 -0.1156,0.25822 -0.2207,0.33176 -0.4207,0.0737 -0.6939,0.15779 -0.8201,0.25258 l -0.095,0.34669 -0.4725,0.0942 -0.3476,0.60015 -0.7884,0.44172 -0.2526,1.04097 c 0.2104,0.37854 0.5049,0.9668 0.8835,1.76599 0.7676,0.5573 1.4934,0.9362 2.1769,1.136 0.8623,0.17888 1.5189,0.29418 1.971,0.34665 l 1.2618,0.31593 c 1.5143,0 2.6394,-0.15808 3.3755,-0.47342 0.4732,-0.24187 0.8254,-0.43083 1.0567,-0.56752 1.0201,-0.39958 1.8249,-0.60015 2.4137,-0.60015 0.1367,0 0.2573,0.0119 0.3625,0.0318 0.2841,-0.27338 0.7782,-0.46771 1.4827,-0.58339 0.5363,-0.0841 1.0785,-0.16314 1.6253,-0.23683 1.3144,-0.44165 2.3446,-0.8196 3.0911,-1.13508 1.5563,-0.47318 2.7497,-0.82013 3.5805,-1.04094 0.4626,-0.24188 0.8096,-0.43176 1.0409,-0.56848 h 0.6943 l 0.126,-0.34665 c 0.2315,-0.0208 0.6519,0.0208 1.2618,0.12569 0.368,0.14709 0.7416,0.29448 1.1202,0.44171 0.7781,0.32598 1.2883,0.59926 1.5302,0.8201 l 1.6243,0.44172 c 0.4101,0 0.9044,-0.1153 1.4827,-0.34666 1.02,-0.78866 1.5985,-1.20925 1.7352,-1.26181 l 0.4417,-0.91516 -0.095,-0.93005 c -0.2103,-0.27338 -0.3886,-0.61061 -0.5358,-1.01019 l -0.5051,-0.0318 -0.8201,-0.4725 c -0.5047,0.0526 -0.9147,-6.8e-4 -1.2301,-0.15838 -1.7351,0.24188 -3.381,0.74674 -4.9374,1.51436 -0.5888,-0.44162 -1.1354,-0.66258 -1.6401,-0.66258 l 0.032,-0.22078 c -0.3365,-0.56783 -0.7784,-1.04077 -1.3252,-1.41931 -0.263,-0.85175 -0.6471,-1.51368 -1.1518,-1.98686 l -0.5676,-0.28437 -0.6943,-0.88345 v -0.1257 l -0.8201,-0.22078 0.2526,-0.58431 v -0.25169 c 0.5258,-0.6099 0.7884,-1.06246 0.7884,-1.35687 l 0.3476,-0.47342 v -0.34668 l 0.7884,-0.44172 c 0.1682,-0.77814 0.3262,-1.35669 0.4734,-1.73523 0.074,-0.29447 0.126,-0.52512 0.1575,-0.69337 0.063,-0.23148 0.095,-0.30496 0.095,-0.22078 0.012,-0.0841 0.015,-0.49499 0.015,-1.23106 0,-0.50474 0.068,-0.90933 0.2051,-1.21427 -0.031,-0.35753 -0.2205,-0.7355 -0.5676,-1.13508 l -0.6001,0.0942 -0.3467,0.34665 v 0.25258 c 0.2945,0.53629 0.494,0.95688 0.5992,1.26184 -0.1263,0.42062 -0.1679,0.92015 -0.126,1.49853 l -0.3476,0.82007 -0.126,0.0951 -0.2208,0.47341 0.2208,0.1257 -0.4734,0.66258 v 0.25258 c -0.3049,0.38909 -0.5676,0.72537 -0.7884,1.00927 l -0.5675,1.04094 -0.2208,0.12569 c -0.074,0.16819 -0.1899,0.31558 -0.3476,0.44175 l -0.4725,-0.56753 h -0.3476 l -0.094,-0.22078 -0.5685,-0.34669 h -1.3084 c -0.084,0.0119 -0.3051,0.0627 -0.6626,0.15749 -0.2523,0.0737 -0.4839,0.0948 -0.6942,0.0633 v 0.12569 c -0.5048,0.34701 -0.9671,0.57861 -1.3877,0.69429 -0.3786,0.39958 -0.6527,0.70389 -0.821,0.91421 l -0.2208,0.58431 0.1269,0.25169 h 0.5675 c 0.4627,-0.5363 1.1566,-0.97195 2.0819,-1.30844 h 0.5685 c 0.4732,0.22078 0.8041,0.46216 0.9934,0.72505 l 0.095,0.48925 0.4725,0.18929 -0.5042,0.47341 c -0.8412,0.19969 -1.6034,0.34707 -2.2869,0.44172 -0.2523,0.0841 -0.4316,0.12569 -0.5368,0.12569 -0.8517,0 -1.7036,-0.18899 -2.5553,-0.56752 h -0.5675 c -0.5048,-0.39958 -1.015,-0.79981 -1.5302,-1.19939 -0.5468,-0.44165 -0.9674,-0.96157 -1.2618,-1.56095 l -0.1893,-1.04098 -0.5676,-0.47338 0.032,-0.85178 -0.2844,-0.66262 c 0.2312,-0.38905 0.3786,-0.76703 0.4418,-1.13505 l -0.1269,-1.40441 h 0.1269 v -0.0942 l 0.2831,-0.47342 0.3159,-1.73523 c 0.5258,-0.65195 0.8097,-0.98823 0.8518,-1.00927 l 0.094,-0.5992 0.4734,-0.22078 0.5834,-0.78935 0.4734,-0.25168 0.9152,-0.0951 0.7884,0.56752 c 1.0305,0.18929 1.767,0.26298 2.2086,0.22079 l 0.5676,0.3476 c 0.9674,0.23148 2.0028,0.34668 3.107,0.34668 1.1987,0 2.4295,-0.30526 3.6913,-0.91513 v -0.12569 c 0.1471,-0.16819 0.4205,-0.37322 0.8201,-0.61507 0.3996,-0.25228 0.6675,-0.47333 0.8042,-0.66261 l 0.4734,-1.136 -0.1259,-0.47247 h -0.2208 l -0.4734,-0.44174 -0.4576,-0.12689 -0.5992,-0.82007 -0.2208,-0.0942 -0.3476,-0.47341 -1.7343,-0.69429 c -0.2945,0.063 -0.6733,-0.0119 -1.136,-0.22078 l -0.4734,0.12688 c -0.2523,-0.0841 -0.4414,-0.12688 -0.5676,-0.12688 z m 4.243,1.04094 h 0.3467 c 0.673,0.33649 1.1779,0.60006 1.5144,0.78935 l 0.2208,0.69334 1.1677,0.47342 c -0.084,0.62038 -0.5207,1.20425 -1.3094,1.75107 -0.053,0.0315 -0.7305,0.41045 -2.0343,1.136 -0.1052,0.0208 -0.2107,0.0306 -0.316,0.0306 -0.2208,0 -0.5464,-0.063 -0.9775,-0.18928 -0.4207,-0.13669 -0.7419,-0.20503 -0.9627,-0.20503 -0.095,0 -0.1842,0.006 -0.2683,0.0148 l -0.6151,-0.22078 -0.9142,0.0951 -0.7893,-0.56848 c -1.1567,-0.30493 -1.8923,-0.52054 -2.2077,-0.64674 l -0.3784,-0.56753 c 0.1263,-0.11559 0.3045,-0.29934 0.5359,-0.55171 0.2314,-0.25228 0.4106,-0.43696 0.5367,-0.55261 l 0.2517,-0.0942 0.2208,-0.25258 c 0.5889,-0.25228 1.241,-0.55763 1.9561,-0.91516 1.1777,-0.0841 1.6453,-0.12569 1.4034,-0.12569 0.1263,0 0.3161,0.0208 0.5685,0.0633 0.2523,0.0422 0.4414,0.0624 0.5676,0.0624 -0.042,0 0.4521,-0.0737 1.4826,-0.22078 z m 38.3615,1.60942 c -0.1788,0.10519 -0.579,0.23118 -1.1993,0.37836 -0.5363,0.13669 -0.909,0.31504 -1.1193,0.53585 h -0.2208 l -0.284,0.34761 -0.3784,-0.0318 c -0.5363,0.4837 -0.9356,0.87766 -1.1984,1.1826 l -0.3477,0.8201 -0.2208,0.12658 v 0.44172 l -0.1259,0.22078 -0.4418,0.12569 -0.1268,0.56756 0.095,0.44171 c -0.3471,0.6835 -0.631,1.18839 -0.8518,1.51436 -0.1052,0.39961 -0.1682,0.70484 -0.1893,0.91516 -0.4206,1.30389 -0.6415,2.07675 -0.6626,2.3186 -0.4101,0.37857 -0.7153,1.07244 -0.9151,2.08191 l -0.3625,0.44175 v 0.5992 l -0.2208,0.44174 v 0.25258 h -0.126 c -0.1471,0.76762 -0.2208,1.36121 -0.2208,1.78182 -0.1052,0.36802 -0.1893,0.64131 -0.2526,0.82008 -0.1578,0.0737 -0.3573,0.23147 -0.5992,0.47341 -0.2315,0.24188 -0.4523,0.41046 -0.6626,0.5051 l -0.5675,-0.25258 -0.2208,-0.22078 h -0.2208 l -0.4734,0.34668 v 0.44175 l 0.5676,0.60015 0.2525,0.0942 c 0.4417,-0.0526 0.778,-0.0119 1.0093,0.1257 0.3996,-0.063 0.8202,-0.17859 1.2618,-0.34669 0.4522,-0.36805 0.8044,-0.67328 1.0568,-0.91513 l 0.4734,-0.12569 c 0.5258,-0.36805 0.7884,-0.90396 0.7884,-1.6085 l 0.2526,-0.45758 0.095,-0.94681 0.315,-0.37836 c 0.095,-0.37856 0.1789,-0.63055 0.2525,-0.75672 l 0.2526,-0.22078 -0.1575,-0.3476 c 0.1263,-0.063 0.2939,-0.17829 0.5042,-0.34669 -0.012,-0.0841 0.047,-0.40442 0.1732,-0.96175 0.1367,-0.62039 0.2158,-1.02594 0.2369,-1.21522 0.1052,-0.24188 0.2736,-0.51514 0.5051,-0.82008 -0.053,-0.18928 0.012,-0.48919 0.1893,-0.89929 l -0.032,-0.47249 c 0.095,-0.28408 0.2942,-0.55719 0.5992,-0.82008 v -0.82102 l 0.2841,-0.34668 0.094,-1.26182 c 0.263,-0.26298 0.4634,-0.56812 0.6001,-0.91513 0,-0.0841 -0.01,-0.21008 -0.015,-0.37836 -0.012,-0.16819 -0.015,-0.29418 -0.015,-0.37836 0.305,-0.34701 0.5366,-0.66731 0.6943,-0.96175 0.1893,-0.0315 0.4883,-0.13729 0.8984,-0.3159 0.3575,-0.16819 0.6521,-0.25258 0.8835,-0.25258 -0.012,0 0.095,0.0321 0.3159,0.0951 h 0.6933 l 0.2208,-0.12659 9e-4,-0.56755 -0.3467,-0.47342 c -0.1785,0.0208 -0.4413,-0.009 -0.7883,-0.0942 z m 7.6809,0 c -0.1789,0.10519 -0.578,0.23118 -1.1985,0.37836 -0.5363,0.13669 -0.9098,0.31504 -1.1201,0.53585 h -0.2208 l -0.2832,0.34761 -0.3783,-0.0318 c -0.5363,0.4837 -0.9365,0.87766 -1.1994,1.1826 l -0.3467,0.8201 -0.2208,0.12658 v 0.44172 l -0.1268,0.22078 -0.4409,0.12569 -0.1269,0.56756 0.095,0.44171 c -0.3469,0.6835 -0.6309,1.18839 -0.8517,1.51436 -0.1052,0.39961 -0.1682,0.70484 -0.1893,0.91516 -0.4206,1.30389 -0.6415,2.07675 -0.6626,2.3186 -0.4101,0.37857 -0.7153,1.07244 -0.9151,2.08191 l -0.3626,0.44175 v 0.5992 l -0.2207,0.44174 v 0.25258 h -0.1269 c -0.1471,0.76762 -0.2208,1.36121 -0.2208,1.78182 -0.1052,0.36802 -0.1884,0.64131 -0.2517,0.82008 -0.1578,0.0737 -0.3583,0.23147 -0.6001,0.47341 -0.2315,0.24188 -0.4514,0.41046 -0.6617,0.5051 l -0.5685,-0.25258 -0.2208,-0.22078 h -0.2207 l -0.4725,0.34668 v 0.44175 l 0.5675,0.60015 0.2526,0.0942 c 0.4416,-0.0526 0.7779,-0.0119 1.0093,0.1257 0.3995,-0.063 0.8201,-0.17859 1.2618,-0.34669 0.4521,-0.36805 0.8044,-0.67328 1.0568,-0.91513 l 0.4734,-0.12569 c 0.5258,-0.36805 0.7884,-0.90396 0.7884,-1.6085 l 0.2526,-0.45758 0.094,-0.94681 0.3159,-0.37836 c 0.095,-0.37856 0.1789,-0.63055 0.2526,-0.75672 l 0.2526,-0.22078 -0.1584,-0.3476 c 0.1263,-0.063 0.2947,-0.17829 0.5051,-0.34669 -0.012,-0.0841 0.047,-0.40442 0.1732,-0.96175 0.1367,-0.62039 0.2157,-1.02594 0.2368,-1.21522 0.1052,-0.24188 0.2728,-0.51514 0.5042,-0.82008 -0.053,-0.18928 0.012,-0.48919 0.1902,-0.89929 l -0.032,-0.47249 c 0.095,-0.28408 0.2941,-0.55719 0.5992,-0.82008 v -0.82102 l 0.2841,-0.34668 0.094,-1.26182 c 0.2629,-0.26298 0.4625,-0.56812 0.5992,-0.91513 0,-0.0841 -0.01,-0.21008 -0.015,-0.37836 -0.012,-0.16819 -0.015,-0.29418 -0.015,-0.37836 0.3049,-0.34701 0.5365,-0.66731 0.6943,-0.96175 0.1893,-0.0315 0.4892,-0.13729 0.8993,-0.3159 0.3575,-0.16819 0.6521,-0.25258 0.8834,-0.25258 -0.012,0 0.094,0.0321 0.315,0.0951 h 0.6943 l 0.2208,-0.12659 9e-4,-0.56755 -0.3467,-0.47342 c -0.1786,0.0208 -0.4423,-0.009 -0.7893,-0.0942 z m -19.6383,3.1387 c -0.1893,0 -0.3676,0.0416 -0.5359,0.12569 l -0.1269,0.12689 -0.5675,0.22078 c -0.2315,0.26298 -0.4203,0.57786 -0.5675,0.94588 0.1367,0.50474 0.063,0.98832 -0.2208,1.45101 0,0.46266 -0.012,0.80962 -0.032,1.04095 l 0.2832,0.66261 0.411,-0.12569 c 0.1892,-0.22079 0.3995,-0.40012 0.6309,-0.5368 0.1682,-0.19969 0.2727,-0.46243 0.3149,-0.7884 l 0.4101,-0.0942 0.1269,-0.44174 0.2516,-0.28407 v -0.3159 c 0.2523,-0.16819 0.4104,-0.48323 0.4735,-0.94592 l 0.2208,-0.18928 v -0.37836 c -0.1471,-0.21038 -0.3362,-0.36826 -0.5675,-0.47342 z m -17.6655,6.41997 -0.1268,0.12569 -0.2208,0.56756 -0.4417,0.12658 -0.126,0.22079 h -0.2369 l -0.3466,0.22078 c -0.4417,0 -0.8312,0.0416 -1.1677,0.12569 l -0.4101,0.31498 -0.1574,0.82102 0.5675,0.1257 0.3476,-0.1257 0.2199,-0.22078 h 0.2526 l 0.095,-0.12688 0.2525,0.12688 c 0.095,0.5573 -0.1786,1.25121 -0.8201,2.08192 v 0.0942 c -0.3365,0.52575 -0.5051,1.15131 -0.5051,1.87689 0.1786,0.66246 0.3155,1.19932 0.4101,1.60942 0.7992,0.72555 1.6776,1.10352 2.6345,1.13508 0.4627,-0.0422 0.8513,-0.19909 1.1668,-0.4725 h 0.4417 c 0.021,-0.0422 0.053,-0.0998 0.095,-0.17324 0.042,-0.0737 0.073,-0.13223 0.094,-0.17413 l -0.063,-0.0942 c 0.053,-0.0422 0.3109,-0.34731 0.7735,-0.91513 0.2734,-0.34701 0.6993,-0.599 1.2777,-0.75672 -0.2419,0.60987 -0.3786,1.1458 -0.4101,1.60847 l 0.126,0.50512 c 0.3786,0.22078 0.8098,0.39913 1.2935,0.53585 0.8202,0.063 1.4147,-0.0309 1.7828,-0.28318 l 0.1259,-0.25258 0.5676,-0.44174 0.2208,-0.47342 c 0.2419,-0.18929 0.4318,-0.33658 0.5685,-0.44171 v -0.1257 c 0.042,-0.0737 0.2362,-0.20503 0.5833,-0.3942 0.3576,-0.18928 0.5936,-0.36323 0.7092,-0.52096 l 10e-4,-0.22078 -0.3467,-0.48926 c -0.1052,-0.0208 -0.3048,0.0267 -0.5992,0.14264 -0.3996,0.41012 -0.7049,0.71443 -0.9152,0.91423 v 0.22079 l -0.094,0.12688 -0.6943,0.0942 c -0.1262,0.16818 -0.3887,0.37853 -0.7884,0.6309 0,-0.0526 -0.01,-0.13579 -0.015,-0.25168 -0.012,-0.11559 -0.015,-0.19998 -0.015,-0.25258 v -0.3476 l 0.3467,-0.91424 0.126,-0.12689 0.3476,-0.80423 v -0.56753 c 0.1578,-0.34701 0.2731,-0.66291 0.3467,-0.94683 h 0.095 c 0.084,-0.56783 0.1994,-0.90411 0.3467,-1.00927 h 0.1268 l 0.3467,-0.69429 h 0.095 v -0.34665 l 0.126,-0.22079 c 0.042,-0.31548 4e-4,-0.58877 -0.126,-0.8201 l -0.7893,-0.28437 -0.9142,0.41004 c -0.1156,0.24188 -0.1584,0.47347 -0.1269,0.69429 -0.1893,0.34701 -0.3365,0.59899 -0.4417,0.75672 -0.3786,0.86226 -0.6359,1.52508 -0.7726,1.98778 h -0.1269 c -0.095,0.0948 -0.1673,0.25257 -0.2199,0.47341 -0.053,0.0315 -0.2585,0.19404 -0.6159,0.48831 -0.2419,0.19968 -0.4779,0.34178 -0.7093,0.4259 -0.147,0.22079 -0.2635,0.41607 -0.3476,0.58432 v 0.12569 l -0.2207,0.0951 c -0.084,0.12629 -0.2101,0.20949 -0.3784,0.25169 l -0.062,0.22078 -0.3476,0.12658 c -0.8622,0.86227 -1.3245,1.31388 -1.3877,1.35592 h -0.41 c -0.1578,-0.14708 -0.3574,-0.44619 -0.5992,-0.89837 -0.2315,-0.46266 -0.3263,-0.77324 -0.2844,-0.93097 l -0.095,-0.12569 c -0.042,-0.39958 0.032,-0.75185 0.2208,-1.05681 l 0.1269,-0.0951 0.094,-0.91513 c 0.2104,-0.30493 0.3682,-0.50459 0.4734,-0.59923 v -0.0942 c 0.2104,-0.16818 0.3682,-0.55778 0.4734,-1.16767 h 0.094 c 0.095,-0.28408 0.1789,-0.47292 0.2526,-0.56756 l 0.5685,-0.12659 0.094,-0.21989 c -0.021,-0.46266 -0.052,-0.81053 -0.094,-1.04186 l -0.6943,-0.21989 -0.5684,0.21989 z m 15.5836,0.0624 c -0.9254,0 -1.6982,0.13669 -2.3186,0.41007 -0.263,0.12628 -0.4625,0.22108 -0.5993,0.28437 -0.3365,0.063 -0.6737,0.12599 -1.0102,0.18928 -0.2418,0.0419 -0.5461,0.21068 -0.9142,0.5051 l -0.063,0.31497 0.063,0.25258 0.2208,0.18929 0.2526,0.0318 c 0.2315,-0.11559 0.4513,-0.18928 0.6617,-0.22078 l 0.2525,-0.25258 c 0.1893,-0.0841 0.4945,-0.18869 0.9152,-0.31498 v -0.12658 c 0.2314,-0.19969 0.4993,-0.31513 0.8042,-0.34669 l 0.1269,0.1257 0.031,0.50509 -0.2517,0.50513 h -0.1426 v 0.12569 l -0.126,0.12569 v 0.22079 c -0.3365,0.90431 -0.5158,1.48286 -0.5368,1.73523 -0.263,0.49422 -0.5255,0.98312 -0.7884,1.46682 -0.3996,0.74658 -0.6835,1.17784 -0.8518,1.29352 l -0.1575,0.37836 c 0,0.33649 0.094,0.67277 0.2835,1.00927 l 0.2208,0.0951 c 0.063,0.0422 0.1367,0.12629 0.2208,0.25258 v 0.0942 c 0.4521,0.21038 0.9153,0.29477 1.3885,0.25257 l 0.5834,0.22079 0.126,-0.1257 0.4734,-0.0951 0.095,-0.12569 0.4734,-0.12688 0.3784,-0.28319 c 0.032,-0.0737 0.1,-0.17918 0.205,-0.31593 0.1052,-0.13668 0.1735,-0.24128 0.205,-0.31497 l 0.4734,-0.0951 0.2208,-0.25258 h 0.126 l 0.1269,-0.22078 0.2199,-0.12569 c 0.1682,-0.34702 0.2419,-0.60967 0.2208,-0.78843 l -0.2526,-0.12659 -0.2832,0.0318 -0.3793,0.22078 c -0.1156,0.28378 -0.4519,0.58919 -1.0093,0.91516 -0.5467,0.31545 -0.978,0.48314 -1.2934,0.50417 l -0.032,-0.37836 c 0.084,-0.35753 0.1372,-0.63081 0.1583,-0.8201 h 0.094 c -0.021,-0.063 0.095,-0.49966 0.3476,-1.30933 l 0.3467,-0.31501 c 0.1263,-0.19968 0.2104,-0.43137 0.2526,-0.69425 h 0.094 c 0.1156,-0.38909 0.1584,-0.73601 0.1269,-1.04098 l 0.2208,-0.22078 h 0.1259 l 0.095,-0.34665 0.3467,-0.12659 c 0.263,-0.32597 0.4315,-0.51496 0.5051,-0.56756 0.063,-0.31545 0.094,-0.49472 0.094,-0.53677 0,-0.43113 -0.042,-0.71509 -0.126,-0.85177 h -0.126 c -0.1052,-0.27338 -0.2523,-0.50406 -0.4417,-0.69334 -0.021,0 -0.1001,-0.0149 -0.2368,-0.0476 -0.1367,-0.0315 -0.2158,-0.0475 -0.2369,-0.0475 z m -13.3442,10.89973 1.3252,0.0942 1.0727,0.56847 0.2207,0.58337 -0.2207,0.47342 c -0.7676,0.53629 -1.3782,0.91424 -1.8303,1.13508 h -0.9142 c -0.1263,0 -0.5264,-0.21573 -1.1994,-0.64675 -0.8307,-0.53629 -1.2663,-0.8149 -1.3084,-0.83594 0.368,-0.28407 0.8303,-0.54123 1.3876,-0.77256 0.4837,-0.19968 0.9726,-0.39943 1.4668,-0.59923 z m 20.2926,5.19824 v 0.1257 l -1.6085,0.22078 -0.1269,0.34665 -0.2208,0.12659 -0.8201,0.0942 c -0.4522,0.30494 -0.7991,0.49488 -1.0409,0.56848 -0.7782,0.51526 -1.362,0.91454 -1.7511,1.19846 h -0.3784 l -0.5675,-0.47341 c -0.5363,-0.17889 -0.9782,-0.24188 -1.3252,-0.18929 l -0.5675,-0.28437 -1.1677,0.22078 -0.5676,-0.12569 -1.1677,0.25257 c -1.1569,-0.23118 -1.7292,-0.3476 -1.7184,-0.3476 h -0.821 c -0.4311,0.11559 -0.7781,0.30559 -1.041,0.56845 l -0.4417,0.12569 -0.3467,0.31593 -2.0819,0.69334 -0.095,0.12688 c -0.6835,0.36805 -1.1928,0.67236 -1.5293,0.91424 l -0.2208,0.58428 v 0.59923 c 0.3786,0.43114 0.6829,0.69376 0.9142,0.7884 l 0.2369,0.47342 c 1.2724,0.29447 1.9352,0.44174 1.9878,0.44174 h 0.9142 l 0.5684,-0.22078 0.7885,-0.8201 c 0.41,-0.17889 0.7153,-0.32606 0.9151,-0.44172 l 0.126,-0.56847 -0.126,-0.4725 -0.7893,-0.58431 c -0.3575,-0.063 -0.8935,0.17383 -1.6085,0.71012 v 0.91516 h -0.2208 c -0.1578,0.15779 -0.3574,0.30503 -0.5993,0.44172 -0.6835,-0.0948 -1.1777,-0.28467 -1.4826,-0.56848 l -0.1269,-0.44171 0.1269,-0.34669 c 0.9253,-0.91483 2.4187,-1.68768 4.4797,-2.31859 1.0305,0.0948 1.7501,0.21008 2.1602,0.34665 0.4311,-0.12629 0.7577,-0.20949 0.9785,-0.25168 0.4732,0.29447 1.0934,0.46209 1.861,0.50417 0.4627,0.26298 0.7573,0.48385 0.8835,0.66258 l -0.1269,0.34669 -0.2208,0.22078 -0.3467,0.14263 -0.2207,0.44174 c 0.012,0.0945 -0.012,0.37857 -0.063,0.85175 l -0.4725,0.37836 -0.032,0.28319 -0.1269,0.22078 -0.4725,0.12688 c -0.3575,0.62042 -0.6521,1.07203 -0.8835,1.35595 -0.4837,0.87279 -0.7259,2.10884 -0.7259,3.70718 l 0.1269,0.12569 0.2207,0.91513 c -0.1681,0.36805 -0.2323,0.84096 -0.1901,1.4193 l 0.3793,0.63094 -0.095,0.69426 0.3783,0.1257 0.2208,1.04094 h 0.2526 l 0.4417,0.56848 0.6943,0.22078 0.4725,0.48833 0.7893,0.22078 c 0.4627,0.4101 0.925,0.91499 1.3876,1.51437 0.7466,0.30493 1.2985,0.47888 1.6561,0.52093 0.5573,0.0422 1.1145,0.0891 1.6718,0.14174 l 1.041,-0.34666 0.9468,0.34666 c 0.5678,-0.0948 1.1774,-0.28348 1.8294,-0.56753 l 0.5843,0.1257 c 0.5678,-0.37854 0.9458,-0.6838 1.135,-0.91513 l 0.3477,-0.1257 0.1892,0.44171 0.5676,0.37836 0.1893,0.66259 c 0.7361,0.46269 1.4929,1.11487 2.2711,1.9561 l 0.9468,0.44174 0.3467,0.47247 1.2776,0.34761 0.1893,0.7092 -0.8834,0.0951 v 0.25258 c -0.305,0.0422 -0.541,0.0731 -0.7092,0.0942 -1.4301,0.36802 -2.5029,0.64226 -3.218,0.821 -0.5257,0.19968 -0.9143,0.35681 -1.1667,0.47249 -0.347,0.0526 -0.6106,0.0847 -0.7893,0.0951 -0.673,0.19969 -1.1823,0.35774 -1.5293,0.47342 v 0.22078 c -0.1997,0.16819 -0.4634,0.32526 -0.7893,0.47247 -1.1147,-0.063 -2.2602,0.12688 -3.4379,0.56848 -0.095,0.0945 -0.2526,0.16818 -0.4734,0.22078 v 0.12569 c -0.7571,0.14709 -1.341,0.22078 -1.7511,0.22078 -1.2198,0.29448 -2.1346,0.52605 -2.7445,0.69429 l -0.3466,-0.12688 -1.1361,0.25258 c -0.7886,-0.16819 -1.3672,-0.25258 -1.7352,-0.25258 -0.5783,-0.13669 -1.0149,-0.25198 -1.3093,-0.34668 l -1.041,-0.85178 -0.1893,-0.85178 c 0.3471,-0.34698 0.537,-0.57861 0.5685,-0.69426 l 0.2208,-0.12569 0.4408,-0.0318 0.4734,-0.47342 h 0.8676 l 0.6309,0.37836 c 0.2734,0.49422 0.4313,0.81012 0.4734,0.94681 l 0.5992,0.44174 0.2208,0.34668 0.3467,0.12688 0.4417,-0.12688 c 0.021,-0.0945 0.032,-0.19939 0.032,-0.31501 0,-0.90431 -0.4623,-1.75615 -1.3876,-2.5553 l -0.2526,-0.56848 c -0.095,-0.0422 -0.3573,-0.12005 -0.7884,-0.23593 h -1.0568 c -0.042,0.14708 -0.1156,0.25733 -0.2208,0.33084 -0.4206,0.0737 -0.6939,0.15779 -0.82,0.25258 l -0.095,0.34665 -0.4735,0.0951 -0.3466,0.59923 -0.7884,0.44175 -0.2526,1.04094 c 0.2104,0.37854 0.5049,0.96775 0.8834,1.76691 0.7677,0.5573 1.4926,0.93528 2.1761,1.13508 0.8622,0.17888 1.5197,0.29507 1.9719,0.3476 l 1.2618,0.31498 c 1.5142,0 2.6394,-0.15808 3.3754,-0.47342 0.4732,-0.24188 0.8255,-0.43083 1.0568,-0.56752 1.02,-0.39958 1.8248,-0.59923 2.4137,-0.59923 0.1367,0 0.2573,0.0119 0.3625,0.0318 0.2838,-0.27338 0.7782,-0.46864 1.4827,-0.58432 0.5363,-0.0841 1.0775,-0.16224 1.6243,-0.23564 1.3144,-0.44162 2.3456,-0.82054 3.0921,-1.136 1.5563,-0.47318 2.7497,-0.82013 3.5804,-1.04094 0.4627,-0.24188 0.8097,-0.43084 1.041,-0.56756 h 0.6933 l 0.1269,-0.3476 c 0.2315,-0.0208 0.6519,0.0208 1.2618,0.12688 0.3681,0.14709 0.7416,0.29358 1.1202,0.44082 0.7781,0.32597 1.2874,0.60018 1.5293,0.821 l 1.6252,0.44082 c 0.4101,0 0.9043,-0.1153 1.4827,-0.34669 1.02,-0.78866 1.5976,-1.20925 1.7343,-1.26181 l 0.4417,-0.91513 -0.094,-0.93008 c -0.2103,-0.27338 -0.3895,-0.60966 -0.5367,-1.00927 l -0.5051,-0.0318 -0.8201,-0.47341 c -0.5048,0.0526 -0.9147,2.3e-4 -1.2301,-0.15749 -1.7351,0.24188 -3.3801,0.74676 -4.9364,1.51439 -0.5889,-0.44165 -1.1364,-0.66261 -1.6411,-0.66261 l 0.032,-0.22079 c -0.3365,-0.56782 -0.7784,-1.04168 -1.3252,-1.42022 -0.263,-0.85175 -0.6462,-1.51368 -1.1509,-1.98686 l -0.5676,-0.28437 -0.6942,-0.88346 v -0.12569 l -0.8201,-0.22078 0.2526,-0.5834 v -0.25257 c 0.5257,-0.60987 0.7884,-1.06243 0.7884,-1.35687 l 0.3466,-0.47247 v -0.34761 l 0.7884,-0.44174 c 0.1682,-0.77811 0.3262,-1.35574 0.4735,-1.73428 0.074,-0.29448 0.1259,-0.52604 0.1574,-0.69429 0.063,-0.23118 0.095,-0.30499 0.095,-0.22078 0.012,-0.0841 0.015,-0.49404 0.015,-1.23014 0,-0.50474 0.069,-0.91026 0.206,-1.21522 -0.031,-0.3575 -0.2214,-0.73548 -0.5685,-1.13505 l -0.5992,0.0942 -0.3467,0.34761 v 0.25258 c 0.2944,0.53626 0.494,0.95685 0.5992,1.26181 -0.1263,0.42061 -0.1688,0.92018 -0.1269,1.49852 l -0.3466,0.82008 -0.126,0.0942 -0.2208,0.47342 0.2208,0.12569 -0.4734,0.66259 v 0.25257 c -0.305,0.38909 -0.5676,0.72538 -0.7884,1.00927 l -0.5685,1.04098 -0.2208,0.12688 c -0.074,0.16818 -0.189,0.31554 -0.3466,0.44171 l -0.4735,-0.56848 h -0.3466 l -0.095,-0.22078 -0.5675,-0.34665 h -1.3094 c -0.084,0.009 -0.3051,0.0627 -0.6626,0.15749 -0.2523,0.0737 -0.484,0.0948 -0.6943,0.0633 v 0.12569 c -0.5047,0.34699 -0.967,0.57861 -1.3876,0.69426 -0.3785,0.39958 -0.6519,0.70484 -0.8201,0.91516 l -0.2208,0.58337 0.126,0.25257 h 0.5685 c 0.4627,-0.53626 1.1565,-0.97283 2.0819,-1.30932 h 0.5676 c 0.4731,0.22078 0.805,0.46307 0.9943,0.72596 l 0.094,0.48831 0.4734,0.18928 -0.5051,0.47342 c -0.8412,0.19968 -1.6034,0.3471 -2.2869,0.44174 -0.2523,0.0841 -0.4307,0.12569 -0.5359,0.12569 -0.8517,0 -1.7035,-0.18898 -2.5553,-0.56755 h -0.5684 c -0.5048,-0.39958 -1.0141,-0.79886 -1.5293,-1.19843 -0.5468,-0.44166 -0.9674,-0.96253 -1.2618,-1.56191 l -0.1902,-1.04094 -0.5675,-0.47342 0.032,-0.85178 -0.2844,-0.66258 c 0.2312,-0.38906 0.3786,-0.76703 0.4417,-1.13508 l -0.126,-1.40347 h 0.126 v -0.0951 l 0.2841,-0.47341 0.315,-1.73524 c 0.5258,-0.65194 0.8097,-0.98823 0.8518,-1.00926 l 0.095,-0.59921 0.4734,-0.22078 0.5833,-0.78842 0.4735,-0.25258 0.9142,-0.0951 0.7893,0.56848 c 1.0305,0.18928 1.7661,0.26297 2.2077,0.22078 l 0.5685,0.34668 c 0.9674,0.23119 2.0029,0.34666 3.107,0.34666 1.1987,0 2.4285,-0.30431 3.6904,-0.91421 v -0.12659 c 0.1471,-0.16818 0.4214,-0.37322 0.821,-0.61507 0.3996,-0.25228 0.6675,-0.4733 0.8043,-0.66258 l 0.4734,-1.13508 -0.1269,-0.47342 h -0.2208 l -0.4734,-0.44171 -0.4567,-0.12569 -0.6001,-0.82011 -0.2208,-0.0951 -0.3467,-0.47342 -1.7352,-0.69334 c -0.2945,0.063 -0.6724,-0.0119 -1.1351,-0.22078 l -0.4734,0.12569 c -0.2522,-0.0841 -0.4413,-0.12569 -0.5675,-0.12569 z m 4.243,1.04095 h 0.3467 c 0.6729,0.33649 1.1779,0.59911 1.5143,0.78839 l 0.2208,0.69429 1.1668,0.47247 c -0.084,0.62042 -0.5207,1.20429 -1.3094,1.75107 -0.053,0.0315 -0.7305,0.41045 -2.0344,1.13603 -0.1052,0.0208 -0.2098,0.0318 -0.315,0.0318 -0.2207,0 -0.5473,-0.063 -0.9785,-0.18929 -0.4206,-0.13669 -0.7409,-0.20503 -0.9617,-0.20503 -0.095,0 -0.1842,0.003 -0.2683,0.0149 l -0.6151,-0.22079 -0.9151,0.0951 -0.7884,-0.56755 c -1.1567,-0.30494 -1.8932,-0.52058 -2.2087,-0.64675 l -0.3783,-0.56847 c 0.1263,-0.1156 0.3054,-0.29932 0.5368,-0.55169 0.2315,-0.25228 0.4096,-0.43604 0.5358,-0.55169 l 0.2526,-0.0951 0.2208,-0.25257 c 0.5888,-0.25228 1.241,-0.55671 1.9561,-0.91421 1.1777,-0.0841 1.6453,-0.12659 1.4035,-0.12659 0.1262,0 0.3151,0.0208 0.5675,0.0633 0.2523,0.0422 0.4423,0.0633 0.5685,0.0633 -0.042,0 0.4522,-0.0737 1.4826,-0.22078 z m 45.8522,7.04995 -0.2208,0.34761 v 0.22078 l -0.4734,0.22078 v 0.22078 l -0.126,0.1257 -0.3476,-0.1257 -0.094,0.34669 c -0.1052,0.0419 -0.263,0.12628 -0.4734,0.25257 l -0.095,0.34666 -0.4725,0.56755 h -0.2208 l -0.1584,0.47342 c -0.3155,0.12629 -0.6784,0.22643 -1.0885,0.30006 l -0.2832,-0.0633 -0.4417,0.22078 h -0.3476 l -0.126,0.22078 h -0.2208 c -0.3469,0.16819 -0.6522,0.35724 -0.9151,0.56753 l -0.126,0.47342 c 0.4101,0.063 0.8307,-0.0119 1.2618,-0.22079 l 0.3467,0.0951 c 0.1578,-0.0526 0.3476,-0.16878 0.5685,-0.3476 l 0.5675,-0.1257 0.1415,0.1257 c -0.063,0.42061 -0.1421,0.6939 -0.2369,0.8201 h -0.2207 c -0.2208,0.80967 -0.3886,1.42019 -0.5042,1.83029 l 0.126,0.25258 -0.2832,0.31498 c -0.1581,0.70454 -0.2318,1.10382 -0.2208,1.19846 l -0.41,0.53677 c 0.042,0.35753 -6e-4,0.6468 -0.1269,0.86761 l -0.1893,0.18929 c 0.012,0.19968 -0.1049,0.62039 -0.3467,1.26181 v 0.47342 l 0.094,0.0942 v 0.59923 c 0.095,0.11559 0.2996,0.26832 0.6151,0.45755 0.2837,0.16819 0.4685,0.32089 0.5526,0.45758 0.2734,-0.0208 0.6567,0.0119 1.1509,0.0951 v 0.12569 l 0.5685,-0.12569 c 0.095,-0.0945 0.2517,-0.16819 0.4725,-0.22078 l 0.1269,0.12569 h 0.2207 l 0.126,-0.25258 c 0.2945,0.0208 0.6734,-0.0942 1.136,-0.34668 l 0.2526,-0.34761 0.3783,-0.25168 c 0.2315,-0.23148 0.368,-0.52593 0.4101,-0.88346 l 0.3467,-0.44171 v -0.12569 c 0.2734,-0.11559 0.5369,-0.34728 0.7893,-0.69429 v -0.34761 l 0.2208,-0.36252 -0.3159,-0.69426 c 0.012,0 -0.1049,-0.0309 -0.3467,-0.0942 h -0.3476 l -0.3467,0.22079 v 0.12569 l -0.2526,0.22078 0.2526,0.15749 c -0.1997,0.21038 -0.3888,0.54218 -0.5675,0.99435 v 0.5992 l -0.2526,0.66262 -0.3476,0.34665 c -0.4522,0.14709 -0.7885,0.26357 -1.0093,0.34761 l -0.2526,-0.0951 -0.1893,0.15749 -0.2516,-0.15749 -0.6319,0.12569 c -0.042,-0.28407 -0.1049,-0.52524 -0.1893,-0.72501 l 0.1269,-0.0951 v -0.25258 h -0.2683 l -0.094,-0.0942 v -0.22078 l 0.3626,-0.47342 0.094,-0.34669 0.2525,-0.22078 -0.126,-0.36252 0.4735,-0.25258 v -0.0951 l 0.2199,-0.47338 0.1269,-0.0309 0.095,-0.47342 0.2517,-0.28437 -0.126,-0.25257 0.126,-0.22079 0.2207,-0.0942 -0.126,-0.59923 0.2208,-0.22079 c 0.1156,-0.38905 0.1572,-0.736 0.126,-1.04094 0.2,-0.35753 0.3259,-0.67343 0.3784,-0.94684 l 0.3476,-0.31497 h 0.6626 l 0.094,-0.12659 c 0.3785,-0.063 0.5782,-0.0942 0.5992,-0.0942 0.2208,0 0.4897,0.0416 0.8052,0.1257 0.4311,0.10519 0.699,0.16819 0.8042,0.18928 l 0.3467,-0.0942 0.095,-0.56848 -0.2208,-0.4725 c -0.2838,-0.063 -0.6415,-0.0951 -1.0726,-0.0951 -0.3996,0 -0.6942,0.0321 -0.8835,0.0951 -0.4101,-0.0948 -0.82,-0.15867 -1.2301,-0.19017 0.2419,-0.32598 0.3785,-0.68796 0.41,-1.08754 l 0.4735,-0.56848 v -0.34665 l 0.1259,-0.12569 v -0.0951 l 0.2208,-0.1257 v -0.78934 l -0.2208,0.0951 -0.1259,-0.0951 z m -9.3061,3.77053 c -0.1471,0 -0.5368,0.0523 -1.1677,0.15749 -0.5153,0.22078 -0.9039,0.35747 -1.1668,0.41006 l -0.2208,0.22079 h -0.1268 l -0.094,0.34665 -0.2844,0.22078 -0.032,0.44174 c -0.2104,0.36805 -0.3993,0.65198 -0.5675,0.85178 -0.063,0.22078 -0.095,0.44177 -0.095,0.66259 0.1263,0.31545 0.2629,0.70409 0.41,1.16675 l 0.095,0.0951 h 0.126 c 0.063,0.0948 0.1581,0.24723 0.2844,0.45758 0.1263,0.21038 0.2211,0.36294 0.2844,0.45758 l 0.4734,0.12569 0.2199,0.18929 -0.094,0.26832 0.1575,0.34666 -0.2835,0.25258 0.031,0.37836 c -0.1471,0.29447 -0.2306,0.47368 -0.2517,0.5368 -0.1786,0.0737 -0.3997,0.24663 -0.6626,0.52001 -0.2523,0.27337 -0.4733,0.44733 -0.6626,0.52093 -0.084,0 -0.2154,0.006 -0.3942,0.0149 -0.1786,0.0119 -0.3154,0.0148 -0.41,0.0148 -0.347,0 -0.8519,-0.0951 -1.5144,-0.28437 l -0.5368,-0.50509 c -0.032,-0.34701 0.012,-0.71527 0.1269,-1.10433 l 0.315,-0.18928 h 0.3159 l 0.2208,0.28437 0.063,0.47342 0.2517,0.47342 h 0.3476 l 0.41,-0.56848 0.11,-0.44174 -0.11,-0.44171 0.062,-0.37836 c -0.1786,-0.67299 -0.515,-1.10956 -1.0092,-1.30936 -0.3155,-0.063 -0.4938,-0.0942 -0.5359,-0.0942 h -0.3476 l -0.4725,0.34668 -0.063,0.47342 h -0.126 l -0.1269,0.5051 -0.2525,0.29914 c -0.042,0.0841 -0.1156,0.34677 -0.2208,0.78839 0,0.42062 0.043,0.73655 0.1269,0.94684 0.3049,0.26298 0.5675,0.55748 0.7884,0.88345 0.3259,0.21039 0.5886,0.34696 0.7884,0.41007 0.1366,0.0526 0.41,0.11559 0.8201,0.18928 0.5888,0.1052 0.8257,0.15749 0.7101,0.15749 0.2523,0 0.6099,-0.0208 1.0726,-0.0633 0.2734,-0.24188 0.6097,-0.39889 1.0093,-0.4725 0.3785,-0.37856 0.7255,-0.6208 1.0409,-0.72596 l 0.4418,0.0633 c 0.1892,-0.17888 0.3365,-0.30473 0.4417,-0.37836 l 0.1269,-0.3159 0.3783,-0.22078 c 0.053,-0.44165 0.2104,-0.75663 0.4735,-0.94592 l 0.062,-0.3476 0.284,-0.22078 0.1893,-0.45663 c 0.012,-0.43114 -0.1997,-0.95733 -0.6309,-1.57775 -0.3996,-0.5573 -0.8095,-0.96725 -1.2301,-1.23013 l -0.1584,-0.28408 c 0,-0.21038 -0.042,-0.46227 -0.126,-0.75672 l 0.2208,-0.37836 c 0.1263,-0.063 0.2948,-0.17948 0.5051,-0.3476 0.1682,-0.0422 0.3048,-0.0633 0.41,-0.0633 0.6204,0 1.009,0.0532 1.1668,0.15838 l 0.3467,0.34669 -0.094,0.63091 0.1574,0.47341 0.2844,0.28319 0.5517,0.0633 0.2841,-0.37836 0.095,-0.31593 -0.095,-0.62999 c -0.2841,-0.36802 -0.5315,-0.66261 -0.7418,-0.88345 -0.4101,-0.19968 -0.7145,-0.35774 -0.9142,-0.47339 -0.5469,-0.0841 -0.9674,-0.12569 -1.2619,-0.12569 z m -12.1289,0.0942 c 0.012,0 -0.1367,0.0416 -0.4418,0.1257 -0.053,0 -0.1313,-0.006 -0.2368,-0.0149 -0.1052,-0.009 -0.1833,-0.0149 -0.2356,-0.0149 -0.8623,0.26298 -1.6777,0.84144 -2.4454,1.73524 l -0.2207,0.8201 -0.2526,0.0942 v 1.04094 c -0.1156,0.34701 -0.263,0.57861 -0.4418,0.69429 l -0.126,0.47342 -0.2207,0.22078 0.063,0.0942 -0.1269,0.12659 c -0.095,0.59935 -0.1682,0.99331 -0.2208,1.18259 0.084,0.35753 0.1376,0.66277 0.1587,0.91514 0.4732,0.86226 0.9771,1.47183 1.5134,1.82936 l 0.5685,0.12689 0.094,0.0942 0.7101,0.1257 c 0.2841,-0.10519 0.7729,-0.18334 1.4668,-0.23594 0.631,-0.0526 1.1199,-0.16343 1.4669,-0.33177 1.0411,-1.04103 1.5876,-1.69321 1.6402,-1.9561 l -0.126,-0.34668 -0.6626,0.18928 c -0.1367,0.26298 -0.3257,0.48385 -0.5675,0.66261 l -0.2208,0.0318 c -0.1263,0.0526 -0.3791,0.19998 -0.7577,0.44171 -0.3049,0.18929 -0.5782,0.31528 -0.82,0.37836 l -0.9459,-0.0951 c -0.031,0 -0.064,0.006 -0.095,0.0149 -0.031,0.0119 -0.063,0.0149 -0.094,0.0149 -0.053,0 -0.2265,-0.0523 -0.521,-0.15749 l -0.4734,-0.97851 c 0,-0.0948 -0.01,-0.23119 -0.015,-0.41004 -0.012,-0.17888 -0.015,-0.31539 -0.015,-0.41004 0,-0.0422 0.084,-0.31536 0.2526,-0.8201 0.1785,-0.50474 0.2843,-0.78334 0.3159,-0.83591 l 0.3942,-0.18928 c 0.3049,0.12629 0.8941,0.27337 1.7669,0.44171 0.8833,0.15779 1.4503,0.22078 1.7026,0.18928 l 0.2208,0.1257 c 0.4416,0.063 0.6732,0.0951 0.6943,0.0951 0.021,0 0.1001,-0.0149 0.2368,-0.0476 0.1367,-0.0315 0.2157,-0.0475 0.2368,-0.0475 0.263,-0.18929 0.5255,-0.56726 0.7884,-1.13508 l -0.063,-0.47342 0.1269,-0.37836 -0.1269,-0.3159 0.032,-0.34668 0.1269,-0.1257 h 9e-4 c -0.053,-0.11559 -0.1048,-0.30024 -0.1574,-0.55261 -0.053,-0.25228 -0.1058,-0.43603 -0.1587,-0.55171 l -0.2517,-0.28408 -0.4417,-0.18928 -0.1584,-0.22078 -0.315,-0.1257 -0.3159,-0.3476 c -0.1578,-0.009 -0.3884,-0.068 -0.6934,-0.17324 -0.3049,-0.10519 -0.5365,-0.16284 -0.6943,-0.17324 -0.2314,0.0841 -0.4105,0.13639 -0.5367,0.15749 z m -15.6796,0.25258 -0.1259,0.1257 -0.2208,0.56847 -0.4417,0.1257 -0.126,0.22078 h -0.2369 l -0.3475,0.22078 c -0.4417,0 -0.8303,0.0416 -1.1668,0.12569 l -0.4101,0.31593 -0.1586,0.82008 0.5684,0.12569 0.3467,-0.12569 0.2208,-0.22079 h 0.2526 l 0.094,-0.12569 0.2526,0.12569 c 0.095,0.55734 -0.1789,1.25121 -0.8201,2.08192 v 0.0951 c -0.3365,0.52577 -0.5042,1.15133 -0.5042,1.87688 0.1789,0.66247 0.3154,1.19838 0.41,1.6085 0.7992,0.72555 1.6767,1.10445 2.6336,1.136 0.4627,-0.0422 0.8523,-0.19998 1.1677,-0.47342 h 0.4417 c 0.021,-0.0422 0.052,-0.0998 0.094,-0.17323 0.042,-0.0737 0.074,-0.13134 0.095,-0.17324 l -0.063,-0.0951 c 0.053,-0.0422 0.3099,-0.34731 0.7726,-0.91516 0.2734,-0.34698 0.6993,-0.59896 1.2777,-0.75669 -0.2419,0.60987 -0.3786,1.14581 -0.4101,1.60847 l 0.1269,0.50509 c 0.3785,0.22078 0.8098,0.39916 1.2935,0.53588 0.8202,0.063 1.4138,-0.0309 1.7818,-0.28318 l 0.1269,-0.25258 0.5676,-0.44174 0.2207,-0.47342 c 0.2419,-0.18928 0.4308,-0.33655 0.5676,-0.44171 v -0.1257 c 0.042,-0.0737 0.2365,-0.20503 0.5834,-0.39422 0.3575,-0.18929 0.5944,-0.36321 0.7101,-0.52094 l 9e-4,-0.22078 -0.3467,-0.48833 c -0.1052,-0.0208 -0.3057,0.0267 -0.6001,0.14174 -0.3996,0.41009 -0.7039,0.71535 -0.9142,0.91516 v 0.22078 l -0.095,0.12569 -0.6943,0.0951 c -0.1263,0.16819 -0.3888,0.37854 -0.7884,0.63091 0,-0.0526 -0.01,-0.13699 -0.015,-0.25258 -0.012,-0.11559 -0.015,-0.19998 -0.015,-0.25257 v -0.34669 l 0.3476,-0.91513 0.126,-0.12569 0.3467,-0.80519 v -0.56755 c 0.1578,-0.34698 0.274,-0.66196 0.3476,-0.94589 h 0.094 c 0.084,-0.56782 0.2003,-0.90503 0.3476,-1.01019 h 0.126 l 0.3476,-0.69337 h 0.094 v -0.3476 l 0.1269,-0.22078 c 0.042,-0.31546 -6e-4,-0.58874 -0.1269,-0.82008 l -0.7884,-0.28318 -0.9151,0.41004 c -0.1156,0.24188 -0.1572,0.47252 -0.126,0.69334 -0.1893,0.34701 -0.3366,0.59991 -0.4417,0.75767 -0.3786,0.86223 -0.6359,1.52416 -0.7726,1.98683 h -0.1269 c -0.095,0.0948 -0.1682,0.25257 -0.2208,0.47341 -0.053,0.0315 -0.2576,0.19493 -0.6151,0.48926 -0.2419,0.19968 -0.4787,0.34178 -0.7101,0.4259 -0.1471,0.22079 -0.2624,0.41512 -0.3467,0.58337 v 0.12569 l -0.2207,0.0951 c -0.084,0.12629 -0.2101,0.21038 -0.3784,0.25258 l -0.063,0.22078 -0.3467,0.12569 c -0.8622,0.86227 -1.3254,1.3148 -1.3885,1.35688 h -0.4101 c -0.1578,-0.14709 -0.3573,-0.44715 -0.5992,-0.8993 -0.2315,-0.46269 -0.3263,-0.77327 -0.2841,-0.931 l -0.094,-0.12569 c -0.042,-0.39958 0.032,-0.75185 0.2208,-1.05678 l 0.126,-0.0951 0.095,-0.91421 c 0.2104,-0.30496 0.3682,-0.50459 0.4734,-0.59923 v -0.0951 c 0.2104,-0.16818 0.3673,-0.55688 0.4725,-1.16675 h 0.095 c 0.095,-0.28408 0.1789,-0.47384 0.2526,-0.56848 l 0.5675,-0.12569 0.095,-0.22079 c -0.021,-0.46269 -0.053,-0.80961 -0.095,-1.04094 l -0.6943,-0.22078 -0.5675,0.22078 z m 16.6255,0.59923 c 0.6729,0.52578 1.0722,0.91439 1.1984,1.16676 0.021,0.18928 0.032,0.47324 0.032,0.85178 l 0.126,0.12658 -0.126,0.7884 c -0.1471,0.0737 -0.2636,0.27338 -0.3476,0.59923 -1.6824,-0.0841 -2.8493,-0.29447 -3.5012,-0.63091 l -0.095,-0.37836 0.032,-0.28407 h 0.126 c 0.042,-0.29448 0.095,-0.50474 0.1586,-0.63091 l 0.1893,-0.15749 v -0.25257 l 0.094,-0.0942 0.1269,-0.28437 0.2841,-0.18929 0.1575,-0.25257 c 0.6309,-0.25228 1.1465,-0.37836 1.5461,-0.37836 z m -14.3851,10.36293 1.3242,0.0951 1.0727,0.56753 0.2208,0.58339 -0.2208,0.47342 c -0.7677,0.53627 -1.3772,0.91424 -1.8294,1.13508 h -0.9151 c -0.1263,0 -0.5255,-0.21454 -1.1985,-0.64582 -0.8307,-0.5363 -1.2672,-0.81586 -1.3093,-0.83686 0.368,-0.28408 0.8312,-0.54123 1.3885,-0.77256 0.4838,-0.19969 0.9727,-0.39943 1.4669,-0.59924 z" /></g></svg>
