<?xml version="1.0" encoding="UTF-8" standalone="no"?>
<!-- Created with Inkscape (http://www.inkscape.org/) -->

<svg
   width="22.269442mm"
   height="98.491798mm"
   viewBox="0 0 22.269442 98.491798"
   version="1.1"
   id="svg1"
   xml:space="preserve"
   xmlns="http://www.w3.org/2000/svg"
   xmlns:svg="http://www.w3.org/2000/svg"><defs
     id="defs1" /><g
     id="layer1"
     transform="translate(1265.8728,700.63548)"><path
       id="path7-9-82-1-2"
       style="fill:#ffffff;fill-opacity:1;stroke-width:0.110431px"
       d="m -1261.0496,-700.63545 c 0.104,9.6839 -1.4948,19.22523 -2.8827,28.75177 0.8081,1.21113 2.0829,3.15156 3.005,4.54083 2.238,-2.61848 4.2327,-4.96138 6.0267,-7.07687 0.041,-3.77405 0.1024,-6.5166 0.1883,-0.22129 1.8341,-2.16326 3.2926,-3.886 4.6551,-5.50688 -2.7027,-8.52182 -6.3209,-16.29492 -10.9924,-20.48756 z m 11.0131,20.5514 c -1.3368,1.63924 -2.8821,3.55105 -4.6708,5.76225 0.046,3.39618 0.1051,7.66421 0.2135,13.86406 0.023,-0.0441 0.04,-0.0918 0.066,-0.13178 2.6814,-4.0798 4.9087,-7.44915 6.8864,-10.42861 -0.7232,-3.03322 -1.5545,-6.09379 -2.4951,-9.06592 z m -4.8684,6.00728 c -1.756,2.17117 -3.5703,4.41769 -5.7547,7.13832 1.7288,2.60599 3.2516,4.88991 5.5619,8.40484 0.1475,-10.16953 0.1582,-12.27716 0.1928,-15.54316 z m -9.2279,3.57757 c -0.3857,2.69784 -0.7268,5.39576 -1.02,8.09511 1.3027,-1.51686 2.384,-2.7828 3.5676,-4.16661 -0.8364,-1.27956 -1.6885,-2.58851 -2.5476,-3.9285 z m 16.8983,0.79696 c -0.3928,0.76121 -7.3493,9.56047 -7.2442,10.09581 0.016,0.91838 0.05,2.35399 0.067,3.31445 0.098,-0.15694 0.2014,-0.30881 0.3136,-0.45078 0.2922,-0.36107 0.5875,-0.55222 0.886,-0.57309 0.2046,0 0.309,0.1077 0.3132,0.32267 -0.01,0.14401 -0.071,0.31298 -0.1941,0.50708 -0.1211,0.1941 -0.2799,0.39449 -0.4761,0.60111 -0.2647,0.2797 -0.5384,0.50136 -0.8208,0.66712 0.01,0.36985 0.018,0.88001 0.025,1.2568 0.2185,-0.0745 0.454,-0.19139 0.7108,-0.3617 0.4028,-0.26716 0.7107,-0.50823 0.9236,-0.72319 l 0.013,-0.01 c 0.027,0 0.041,0.0125 0.041,0.0375 v 0.019 c -0.2233,0.21706 -0.5354,0.46021 -0.936,0.72945 -0.2661,0.17871 -0.514,0.30024 -0.747,0.37551 0.02,1.05925 0.05,2.41079 0.072,3.52969 0.1904,-0.0168 0.4544,-0.0893 0.8017,-0.22452 l 0.5052,-0.21461 c 0.01,-0.008 0.01,-0.016 0.014,-0.0235 0.059,-0.0793 0.143,-0.12206 0.2536,-0.12832 0.031,0 0.06,0.008 0.084,0.0253 0.025,0.0167 0.037,0.0405 0.037,0.0718 0,0.0709 -0.035,0.12132 -0.1064,0.15054 -0.071,0.0293 -0.1409,0.0438 -0.2098,0.0438 -0.01,0.0292 -0.01,0.0634 -0.01,0.1031 0,0.0688 0.019,0.12433 0.056,0.16608 0.04,0.0418 0.093,0.0626 0.1597,0.0626 0.1586,0 0.3266,-0.0231 0.504,-0.069 0.1774,-0.0459 0.3579,-0.10626 0.5415,-0.1814 0.1722,-0.0704 0.3443,-0.14581 0.5165,-0.22539 0.078,-0.094 0.1344,-0.14408 0.1662,-0.14408 0.01,0 0.012,9.1e-4 0.015,0.004 0.01,0 0.013,0.002 0.019,0.006 0.011,0.006 0.015,0.0187 0.015,0.0375 0,0.005 0,0.009 0,0.0155 0,0.005 -0.01,0.008 -0.01,0.0125 -0.061,0.0459 -0.1086,0.0972 -0.1441,0.15357 -0.034,0.0543 -0.05,0.11991 -0.05,0.19714 0,0.10853 0.011,0.20237 0.032,0.28168 0.01,0.0459 0.014,0.0774 0.015,0.094 0.1377,-0.21498 0.4234,-0.52284 0.8575,-0.92356 l 0.01,-0.01 c 0.3298,-0.30264 0.6386,-0.62068 0.9266,-0.95462 -0.3109,0.025 -0.6103,0.11358 -0.8983,0.26594 0,0.005 -0.011,0.007 -0.019,0.01 h -0.015 c -0.037,0 -0.057,-0.021 -0.06,-0.0628 0,-0.025 0.018,-0.0458 0.053,-0.0625 0.3256,-0.13984 0.6629,-0.21704 1.0113,-0.23166 0.2088,-0.24835 0.3777,-0.51024 0.5072,-0.78574 0.011,-0.0271 0.023,-0.0449 0.037,-0.0533 0.016,-0.0104 0.035,-0.0158 0.056,-0.0158 h 10e-5 c 0.053,0.005 0.079,0.0335 0.079,0.0878 0,0.0167 0,0.0354 -0.01,0.0563 -0.053,0.14193 -0.1357,0.37768 -0.2505,0.70745 0.3549,0.0167 0.7441,0.0659 1.1678,0.14731 l 0.022,0.022 c 0,0.0125 0,0.0229 -0.013,0.0313 -0.01,0.008 -0.014,0.0125 -0.022,0.0125 -0.4238,-0.0814 -0.818,-0.12946 -1.1833,-0.14407 -0.6553,1.87006 -0.983,3.12232 -0.983,3.75681 0,0.0312 -0.015,0.0478 -0.047,0.05 -0.031,0 -0.047,-0.0177 -0.047,-0.0533 0,-0.33811 0.1095,-0.89723 0.3287,-1.67781 0.2191,-0.78058 0.4227,-1.47258 0.6106,-2.07576 -0.073,0 -0.1505,0.003 -0.2319,0.009 -0.311,0.35898 -0.6364,0.69619 -0.9766,1.01134 -0.4592,0.42578 -0.7599,0.75559 -0.9018,0.98935 0,0.10853 -0.043,0.2389 -0.1315,0.39126 -0.01,0.0104 -0.015,0.0158 -0.028,0.0158 -0.01,0 -0.015,-0.002 -0.022,-0.006 -0.01,-0.005 -0.01,-0.0125 -0.01,-0.025 0,-0.10644 0.028,-0.2107 0.084,-0.31297 0,-0.0376 0,-0.0741 -0.01,-0.10956 -0.01,-0.0355 -0.018,-0.071 -0.028,-0.10655 -0.013,-0.0418 -0.024,-0.0866 -0.034,-0.13459 -0.01,-0.048 -0.015,-0.10533 -0.015,-0.17211 0,-0.0693 0.015,-0.13184 0.044,-0.18808 -0.011,0.005 -0.01,0.004 -0.02,0.01 -0.1064,0.0501 -0.2418,0.10741 -0.4067,0.17212 -0.1649,0.0647 -0.3413,0.12224 -0.5291,0.17233 -0.1858,0.048 -0.36,0.072 -0.5228,0.072 -0.2254,0 -0.3433,-0.095 -0.3538,-0.28491 0,-0.0581 0.01,-0.11186 0.028,-0.1622 -0.022,0.01 -0.016,0.008 -0.047,0.0214 -0.5414,0.23954 -0.9448,0.3699 -1.2134,0.39299 0.012,0.59873 0.027,1.3023 0.038,1.88681 0.01,-0.002 0.02,-0.005 0.03,-0.006 0.034,-0.006 0.069,-0.0124 0.1022,-0.024 0.033,-0.0116 0.065,-0.0285 0.09,-0.0533 0.027,-0.0274 0.045,-0.0631 0.064,-0.0968 0.02,-0.0337 0.042,-0.0674 0.075,-0.0871 0.016,-0.01 0.036,-0.0159 0.055,-0.0155 0.02,3.4e-4 0.039,0.007 0.053,0.0209 0.01,0.006 0.013,0.0149 0.016,0.024 0,0.009 0.01,0.019 0,0.0286 0,0.01 -0.01,0.0189 -0.011,0.0265 -0.01,0.007 -0.014,0.0135 -0.024,0.0164 -0.01,0.002 -0.014,0.003 -0.019,0.005 0,9.1e-4 -0.01,0.004 -0.01,0.005 0,0.003 0,0.005 0,0.009 -2e-4,0.003 0,0.006 0,0.009 0,0.003 0,0.005 0.01,0.005 0,9.1e-4 0.01,0.002 0.01,0.002 0,-1.1e-4 0.01,-8.4e-4 0.01,-0.002 0.01,-0.002 0.011,-0.005 0.015,-0.01 0,-0.005 0.01,-0.008 0.014,-0.012 0.011,-0.009 0.025,-0.0131 0.04,-0.0149 0.014,-0.002 0.028,-9e-4 0.043,-9e-4 0.014,7e-5 0.029,-4e-4 0.043,-0.005 0.014,-0.004 0.027,-0.011 0.036,-0.0224 0,-0.002 0,-0.004 0,-0.005 0,-0.002 0,-0.004 0,-0.005 0,-9e-4 0.01,-0.002 0.01,-0.002 0,-2.8e-4 0.01,-2.7e-4 0.01,-2.2e-4 0.1077,0.002 0.2139,-0.0227 0.3192,-0.0457 0.024,-0.005 0.049,-0.0107 0.073,-0.0188 0.044,-0.0149 0.084,-0.039 0.129,-0.052 0.043,-0.0124 0.089,-0.014 0.1331,-0.0172 0.114,-0.008 0.2267,-0.0296 0.3386,-0.0531 0.052,-0.0108 0.1028,-0.0219 0.1553,-0.0248 0.053,-0.003 0.1065,0.003 0.154,0.0254 0.01,0.003 0.013,0.006 0.018,0.01 l 0.091,-0.0297 c 0,-2.2e-4 0,-10e-6 -0.01,-8.3e-4 0,-9.1e-4 -0.01,-0.004 -0.01,-0.005 -0.01,-0.005 -0.01,-0.0126 -0.01,-0.0197 0,-0.007 0,-0.0137 0.01,-0.0185 0.01,-0.005 0.012,-0.008 0.019,-0.009 0.01,-9.1e-4 0.014,-4.2e-4 0.021,0.002 0.01,0.002 0.013,0.005 0.019,0.01 0.01,0.005 0.014,0.0132 0.019,0.0209 l 0.4094,-0.13481 c 0.014,0.0301 0.04,0.0544 0.071,0.0675 0.031,0.0131 0.066,0.0144 0.098,0.004 0.01,-0.003 0.018,-0.007 0.027,-0.01 0.01,-0.003 0.019,-0.005 0.028,-0.002 0.01,9.1e-4 0.01,0.004 0.013,0.006 0,0.003 0.01,0.007 0.01,0.0119 0,0.005 0,0.01 0,0.014 0,0.005 -0.01,0.008 -0.01,0.01 0,9.1e-4 -0.01,9.1e-4 -0.012,2.2e-4 0,-9e-4 -0.01,-0.003 -0.011,-0.005 -0.01,-0.005 -0.013,-0.011 -0.02,-0.0151 0,-0.002 -0.01,-0.004 -0.011,-0.004 0,-2.9e-4 -0.01,8.4e-4 -0.012,0.004 0,9e-4 0,0.003 0,0.005 0,0.002 0,0.005 0,0.006 1e-4,0.002 0,0.004 0,0.005 0,0.002 0,0.003 0.01,0.004 0,8.3e-4 0.01,2e-4 0.01,-8.4e-4 0,-8.3e-4 0.01,-0.002 0.01,-0.003 0,-8.4e-4 0.01,-9.1e-4 0.01,-4.2e-4 0,4.2e-4 0,9.1e-4 0,0.002 0,8.3e-4 0,0.003 0,0.004 0,9.1e-4 0,0.003 0,0.004 0,9e-4 0,0.002 0,0.003 -0.013,0.0104 -0.03,0.0145 -0.047,0.0151 -0.016,4.2e-4 -0.034,-0.002 -0.05,-0.004 -0.038,-0.003 -0.077,9.1e-4 -0.1157,-0.002 -0.023,-0.002 -0.046,-0.006 -0.069,-0.002 -0.017,0.004 -0.034,0.0126 -0.05,0.019 -0.016,0.006 -0.034,0.0101 -0.051,0.0103 -0.017,3e-4 -0.034,-0.004 -0.05,-0.0106 -0.01,-0.004 -0.015,-0.008 -0.023,-0.0123 -0.01,-0.004 -0.016,-0.007 -0.024,-0.007 0,-1.5e-4 -0.01,4.2e-4 -0.013,0.002 0,0.002 -0.01,0.005 -0.011,0.007 0,0.004 -0.01,0.007 -0.01,0.0117 -4e-4,0.005 0,0.009 0,0.0123 0,0.004 0.01,0.005 0.01,0.008 0.01,0.005 0.01,0.0121 0.01,0.0192 -5e-4,0.007 0,0.0138 -0.01,0.0188 -0.01,0.005 -0.011,0.008 -0.018,0.01 -0.01,9.1e-4 -0.014,8.3e-4 -0.021,-9.1e-4 -0.014,-0.004 -0.025,-0.0133 -0.034,-0.0242 -0.01,-0.0109 -0.015,-0.0233 -0.024,-0.0352 0,-0.004 -0.01,-0.007 -0.01,-0.0112 l -0.066,0.0217 c 0,2.4e-4 0,8.4e-4 0.01,4.2e-4 0,-4.2e-4 0.01,-0.002 0.012,-0.003 0,-2.6e-4 0,-2.2e-4 0.01,4.2e-4 0,8.3e-4 0,0.002 0.01,0.004 0,0.002 0,0.004 0,0.005 0,0.007 0,0.0144 -0.01,0.0208 0,0.006 -0.01,0.0116 -0.014,0.0155 -0.012,0.008 -0.026,0.0105 -0.041,0.009 -0.014,-0.002 -0.028,-0.006 -0.041,-0.0127 -0.01,-0.004 -0.013,-0.006 -0.019,-0.01 l -1.9783,0.65137 c 0.07,3.65176 0.1298,7.03379 0.24,11.81009 0.01,0.39515 -0.3182,0.71348 -0.7134,0.71348 h -0.045 c -0.3954,0 -0.7222,-0.31831 -0.7136,-0.71348 0.089,-4.48036 0.1411,-7.90188 0.1987,-11.46974 l -2.3363,0.76936 c -3e-4,1.9e-4 0,4.1e-4 0,8.3e-4 -0.011,0.006 -0.022,0.0109 -0.034,0.0111 l 0.035,-0.0117 c 0.02,-0.0133 0.034,-0.035 0.044,-0.0565 0.011,-0.0219 0.021,-0.0448 0.037,-0.0632 0.021,-0.0231 0.049,-0.0371 0.078,-0.0472 0.029,-0.0101 0.059,-0.0173 0.087,-0.0297 0.017,-0.007 0.033,-0.0169 0.049,-0.0255 0.092,-0.0485 0.1949,-0.0716 0.2964,-0.094 0.092,-0.0202 0.184,-0.0403 0.2702,-0.077 0.06,-0.0255 0.1165,-0.059 0.1737,-0.0908 0.038,-0.0212 0.076,-0.0417 0.116,-0.0593 0.05,-0.0223 0.1021,-0.0398 0.1525,-0.0617 0.035,-0.0154 0.07,-0.033 0.1062,-0.0462 0.038,-0.014 0.078,-0.0231 0.1176,-0.0331 0.092,-0.023 0.1834,-0.0513 0.2697,-0.091 0.041,-0.0188 0.081,-0.0401 0.1208,-0.0604 0.1125,-0.0567 0.2293,-0.10503 0.3489,-0.14472 0,-8.4e-4 0,-9.1e-4 0.01,-9.1e-4 0,-2e-5 0,7e-5 0,4.2e-4 0,3.5e-4 0,8.3e-4 0,0.002 0,8.3e-4 0,0.002 0,0.004 10e-5,9.1e-4 -10e-5,0.003 0,0.004 0,0.002 0,0.004 -0.01,0.005 0,8.4e-4 -0.01,8.4e-4 -0.01,8.4e-4 0,-2e-4 -0.01,-8.4e-4 -0.01,-8.4e-4 -0.01,-8.4e-4 -0.018,0.002 -0.026,0.006 -0.01,0.005 -0.014,0.0117 -0.017,0.0198 0,0.008 -0.01,0.0174 0,0.0264 0,0.009 0,0.0174 0.01,0.0248 0.01,0.0148 0.027,0.0244 0.045,0.027 0.018,0.003 0.036,-0.002 0.052,-0.01 0.01,-0.004 0.013,-0.008 0.019,-0.0127 0.013,-0.77874 0.031,-1.71714 0.043,-2.50368 -0.01,2e-4 -0.01,9e-4 -0.014,9e-4 -0.1398,0 -0.2171,-0.0365 -0.2317,-0.10957 v -0.0503 c 0,-0.10227 0.057,-0.22733 0.1721,-0.37551 0.013,-0.0229 0.035,-0.0345 0.069,-0.0345 0.01,0 0.011,0.004 0.018,0.005 0.019,-1.18182 0.048,-2.67578 0.065,-3.79369 -0.191,0.16059 -0.4132,0.33031 -0.6896,0.51593 -0.4069,0.2734 -0.7753,0.42572 -1.105,0.45703 -0.2714,-0.0167 -0.4069,-0.16902 -0.4069,-0.45703 0,-0.20093 0.034,-0.4229 0.101,-0.66454 -0.029,0.0141 -0.029,0.0145 -0.079,0.0382 -0.1127,0.0522 -0.2525,0.11295 -0.4195,0.18182 -0.432,0.17532 -0.7639,0.26271 -0.9957,0.26271 v 2.1e-4 c -0.2608,0 -0.3933,-0.10238 -0.3975,-0.30692 0,-0.0589 0.01,-0.11522 0.027,-0.16974 -0.021,0.009 -0.015,0.007 -0.043,0.0194 -0.599,0.26507 -1.031,0.39774 -1.296,0.39774 -0.2568,0 -0.3901,-0.10239 -0.4006,-0.30693 0,-0.0688 0,-0.10537 0,-0.10957 -0.073,0.0709 -0.15,0.13684 -0.2315,0.19736 -0.082,0.0584 -0.164,0.0876 -0.2475,0.0876 -0.1399,0 -0.2171,-0.0365 -0.2317,-0.10957 v -0.05 c 0,-0.10227 0.057,-0.22753 0.1721,-0.37573 0.013,-0.0229 0.035,-0.0345 0.069,-0.0345 0.054,0 0.082,0.0178 0.082,0.0533 l -0.01,0.0158 c -0.1106,0.17115 -0.1659,0.29526 -0.1659,0.37249 0,0.0418 0.029,0.0626 0.088,0.0626 0.058,0 0.1231,-0.0238 0.1941,-0.0718 0.1314,-0.0835 0.2514,-0.19211 0.3599,-0.32569 l 0.022,-0.0283 c 0.013,-0.0208 0.025,-0.0375 0.037,-0.05 0.013,-0.0146 0.043,-0.0217 0.091,-0.0217 0.037,0.0104 0.056,0.0271 0.056,0.05 l -0.01,0.0188 c -0.069,0.10227 -0.1034,0.21277 -0.1034,0.33173 0,0.0605 0.02,0.11484 0.059,0.16284 0.042,0.0459 0.098,0.069 0.1693,0.069 0.192,0 0.4863,-0.0775 0.8828,-0.23186 l 0.4911,-0.20836 c 0.017,-0.0346 0.038,-0.0688 0.064,-0.10158 0.013,-0.023 0.035,-0.0343 0.069,-0.0343 0.023,0 0.043,0.005 0.06,0.0155 0.017,0.008 0.025,0.0211 0.025,0.0378 v 0.0155 c -0.069,0.10436 -0.1031,0.21507 -0.1031,0.33194 0,0.0584 0.018,0.11046 0.053,0.15638 0.038,0.0459 0.094,0.072 0.1691,0.0783 0.1273,0 0.2784,-0.0261 0.4538,-0.0783 0.1774,-0.0543 0.3505,-0.11576 0.5196,-0.18463 0.1691,-0.0688 0.3109,-0.13058 0.4257,-0.18485 l 0.1217,-0.0554 c 0.045,-0.15039 0.1025,-0.30784 0.1727,-0.47342 0.1983,-0.46751 0.4425,-0.88494 0.7325,-1.25228 0.2922,-0.36106 0.5877,-0.5522 0.8861,-0.57307 v 0 c 0.2044,0 0.3087,0.10768 0.3129,0.32267 -0.01,0.14401 -0.071,0.31297 -0.1941,0.50707 -0.1211,0.1941 -0.2796,0.39449 -0.4758,0.60112 -0.4071,0.42994 -0.835,0.72533 -1.2838,0.88603 -0.09,0.27968 -0.1343,0.52075 -0.1343,0.7232 0,0.1461 0.022,0.2492 0.066,0.30972 0.046,0.0605 0.1124,0.091 0.2001,0.091 0.3089,-0.0313 0.6649,-0.18062 1.0677,-0.44777 0.2954,-0.19595 0.536,-0.37677 0.7283,-0.54439 0.012,-0.75944 0.034,-1.84811 0.044,-2.58025 -0.3991,-0.0525 -3.0725,-3.93024 -6.1925,-8.69106 -1.2764,1.5909 -2.5679,3.20415 -3.9844,4.97673 -0.3865,3.85031 -0.6338,7.70542 -0.5834,11.57456 2.5638,1.92298 5.1073,3.83144 7.9407,5.94688 0.3426,0.25559 0.408,0.76596 0.1598,1.12459 l -0.028,0.0408 c -0.2482,0.35862 -0.7247,0.44234 -1.0559,0.17017 -2.4653,-2.02618 -4.6919,-3.8455 -6.9605,-5.70122 0.062,1.8658 0.1717,3.73399 0.3867,5.60761 0.242,-0.0279 15.2294,12.63836 4.2406,23.93982 -0.026,0.0266 -0.043,0.0582 -0.066,0.0871 0.024,0.0279 0.043,0.0568 0.066,0.0848 3.9635,4.83517 4.1915,10.67414 5.8093,16.13955 l 0.2776,-14.33081 c -1.0528,-0.17613 -1.8247,-1.08659 -1.8263,-2.15405 10e-5,-1.20786 0.9793,-2.18703 2.1871,-2.18705 1.2078,2e-5 2.1871,0.97919 2.1871,2.18705 0,1.07383 -0.7816,1.98805 -1.842,2.1575 l 0.4049,14.32736 c 0,0 2.6529,-13.509 5.9259,-16.38003 0.032,-0.0279 0.063,-0.0656 0.095,-0.0915 -0.013,-0.0114 -0.058,-0.0653 -0.085,-0.0834 -1.2909,-0.86107 -11.8549,-9.89357 4.2315,-23.91803 0.2834,-0.27163 0.2848,-2.49162 0.011,-5.83473 -2.1438,1.75746 -3.3503,2.73683 -5.9447,4.86889 -0.3312,0.27216 -0.8076,0.18845 -1.0558,-0.17018 l -0.028,-0.0408 c -0.2482,-0.35863 -0.1828,-0.86901 0.1598,-1.12458 0,0.73574 2.9512,-1.18638 6.8265,-4.01866 -0.4467,-5.11695 -1.549,-12.77805 -3.3781,-20.76211 z m -14.8844,11.80404 h 10e-5 c 0.1941,7e-5 0.3433,0.0816 0.4476,0.24438 0.1044,0.1607 0.1564,0.35901 0.1564,0.59486 0,0.28385 -0.062,0.62709 -0.1846,1.02989 -0.121,0.40074 -0.2859,0.79736 -0.4945,1.18973 -0.2089,0.39029 -0.4457,0.72219 -0.7107,0.9956 -0.2526,0.26298 -0.5094,0.41717 -0.7703,0.46308 0.144,0.0418 0.2774,0.0847 0.4005,0.12855 0.144,0.0522 0.283,0.0961 0.4165,0.13157 0.1336,0.0376 0.2746,0.0562 0.4227,0.0562 0.3027,-0.0104 0.5854,-0.10958 0.8484,-0.29743 0.1064,-0.0773 0.166,-0.11581 0.1785,-0.11581 0.038,0 0.056,0.0167 0.056,0.05 0,0.0208 -0.01,0.0387 -0.025,0.0533 -0.1983,0.12314 -0.3736,0.21583 -0.526,0.27845 -0.1524,0.0647 -0.3297,0.0971 -0.5321,0.0971 v 2.1e-4 c -0.1503,0 -0.2996,-0.0198 -0.4478,-0.0595 -0.1481,-0.0376 -0.2931,-0.0824 -0.435,-0.13458 -0.1399,-0.0522 -0.2903,-0.10025 -0.451,-0.14408 -0.042,-0.0104 -0.076,-0.0176 -0.1033,-0.0217 -0.054,0 -0.1063,-0.007 -0.1564,-0.022 -0.059,-0.006 -0.1211,-0.01 -0.1879,-0.01 -0.2129,0 -0.3841,0.0407 -0.5135,0.12208 -0.1294,0.0814 -0.2086,0.13987 -0.2379,0.17535 -0.021,0.0229 -0.045,0.0345 -0.072,0.0345 -0.027,0 -0.048,-0.0104 -0.062,-0.0312 -0.013,-0.0187 -0.019,-0.0356 -0.019,-0.0503 0,-0.0125 0,-0.0206 0,-0.0248 0,-0.0292 0.1015,-0.0919 0.3039,-0.18786 0.1566,-0.0688 0.3558,-0.10353 0.5979,-0.10353 h 0.019 c -0.061,-0.0418 -0.1148,-0.11685 -0.1629,-0.22539 -0.054,-0.11688 -0.082,-0.26805 -0.082,-0.4538 0,-0.65954 0.2441,-1.32333 0.7324,-1.99121 0.085,-0.455 0.2768,-0.8641 0.5732,-1.22725 0.2983,-0.36309 0.6373,-0.54476 1.0171,-0.54483 z m 10e-5,0.069 c -0.3296,7e-5 -0.6219,0.15124 -0.8765,0.45381 -0.2526,0.30263 -0.4247,0.63037 -0.5165,0.98309 0.077,-0.10018 0.1921,-0.23263 0.3444,-0.39751 h 0.01 c 0.021,0 0.032,0.0104 0.032,0.0312 v 0.0155 c -0.1774,0.23168 -0.3266,0.44153 -0.4476,0.62937 -0.023,0.12523 -0.034,0.24957 -0.034,0.37271 0,0.27342 0.034,0.49231 0.1001,0.65719 0.067,0.1628 0.1535,0.27465 0.2599,0.33518 0.014,0.005 0.022,0.0158 0.022,0.0345 0,0.0229 -0.014,0.0363 -0.041,0.0405 l -0.022,-0.004 c -0.1231,-0.0668 -0.2307,-0.1856 -0.3224,-0.35674 -0.09,-0.17324 -0.1347,-0.409 -0.1347,-0.70745 v -0.094 c -0.3632,0.61153 -0.5448,1.17826 -0.5448,1.70004 0,0.39029 0.096,0.61981 0.2879,0.68868 0.054,0.006 0.1054,0.0146 0.1534,0.025 0.2755,-0.0146 0.5471,-0.15653 0.8142,-0.42577 0.2672,-0.26924 0.5091,-0.60322 0.7263,-1.00186 0.2191,-0.40072 0.3943,-0.80337 0.5257,-1.20826 0.1337,-0.40699 0.2007,-0.74098 0.2007,-1.00187 0,-0.23376 -0.047,-0.42051 -0.1411,-0.56035 -0.094,-0.13978 -0.2253,-0.2098 -0.3943,-0.20986 z m 6.6747,0.57912 c -0.2817,0.0313 -0.579,0.27561 -0.8921,0.73268 -0.311,0.45708 -0.5523,0.93807 -0.7233,1.44315 0.4132,-0.15444 0.8172,-0.43921 1.2116,-0.85454 0.1962,-0.20662 0.3539,-0.40702 0.4728,-0.60112 0.1211,-0.1941 0.1814,-0.3485 0.1814,-0.46329 0,-0.17115 -0.088,-0.25688 -0.2504,-0.25688 z m 2.2323,0 c -0.2817,0.0313 -0.5791,0.27561 -0.8922,0.73268 -0.1105,0.16229 -0.209,0.3286 -0.3018,0.49694 0,0.2129 0.011,0.51668 0.015,0.73183 0.2623,-0.15939 0.5207,-0.37222 0.7751,-0.64016 0.1962,-0.20662 0.3539,-0.40702 0.4728,-0.60112 0.1211,-0.1941 0.1816,-0.3485 0.1816,-0.46329 0,-0.17115 -0.088,-0.25688 -0.2503,-0.25688 z m -5.6259,1.70003 c 0.032,0 0.059,0.0137 0.082,0.0408 0.023,0.025 0.034,0.0521 0.034,0.0813 0,0.0376 -0.015,0.0741 -0.047,0.10956 -0.031,0.0355 -0.063,0.0533 -0.097,0.0533 -0.048,0 -0.072,-0.0374 -0.072,-0.11259 0,-0.10018 0.034,-0.15772 0.1004,-0.17234 z m 2.8093,1.86805 c 0.1942,0 0.3432,0.0813 0.4475,0.24416 0.1044,0.16071 0.1567,0.35902 0.1567,0.59487 0,0.28384 -0.062,0.62729 -0.1847,1.03011 -0.121,0.40072 -0.286,0.79713 -0.4948,1.18951 -0.2087,0.39029 -0.4456,0.72219 -0.7106,0.9956 -0.2526,0.26297 -0.5091,0.41737 -0.77,0.46329 0.1439,0.0418 0.2775,0.0845 0.4006,0.12834 0.1441,0.0522 0.2828,0.0961 0.4164,0.13156 0.1335,0.0376 0.2746,0.0563 0.4227,0.0563 0.3026,-0.0104 0.5854,-0.1096 0.8483,-0.29744 0.1065,-0.0772 0.1661,-0.11582 0.1786,-0.11582 0.037,0 0.056,0.0167 0.056,0.05 0,0.0208 -0.01,0.0389 -0.025,0.0534 -0.1984,0.12315 -0.3738,0.21584 -0.5261,0.27845 -0.1523,0.0647 -0.3296,0.0971 -0.5321,0.0971 -0.1503,0 -0.2996,-0.0197 -0.4478,-0.0593 -0.1482,-0.0376 -0.2933,-0.0826 -0.4352,-0.13481 -0.1398,-0.0522 -0.2901,-0.10025 -0.4508,-0.14407 -0.042,-0.0104 -0.076,-0.0177 -0.1033,-0.0217 -0.054,0 -0.1065,-0.007 -0.1566,-0.022 -0.058,-0.006 -0.121,-0.009 -0.1878,-0.009 -0.213,0 -0.384,0.0407 -0.5134,0.12207 -0.1294,0.0814 -0.2086,0.13988 -0.2378,0.17535 -0.021,0.0229 -0.045,0.0345 -0.072,0.0345 -0.027,0 -0.048,-0.0106 -0.062,-0.0314 -0.013,-0.0187 -0.019,-0.0354 -0.019,-0.05 0,-0.0125 0,-0.0208 0,-0.025 0,-0.0293 0.1011,-0.0919 0.3036,-0.18787 0.1565,-0.0688 0.3558,-0.10331 0.5979,-0.10331 h 0.019 c -0.061,-0.0418 -0.1148,-0.11685 -0.1628,-0.22539 -0.054,-0.11688 -0.082,-0.26826 -0.082,-0.45401 0,-0.65953 0.2442,-1.32312 0.7326,-1.991 0.085,-0.45499 0.2766,-0.86431 0.5729,-1.22747 0.2985,-0.36315 0.6375,-0.5446 1.0174,-0.5446 z m 0,0.0688 c -0.3297,7e-5 -0.622,0.15146 -0.8765,0.45402 -0.2526,0.30263 -0.4245,0.63037 -0.5164,0.9831 0.077,-0.10018 0.1919,-0.23284 0.3442,-0.39772 h 0.01 c 0.021,0 0.032,0.0106 0.032,0.0314 v 0.0155 c -0.1774,0.23168 -0.3265,0.44133 -0.4476,0.62916 -0.023,0.12523 -0.034,0.24935 -0.034,0.37249 0,0.27341 0.034,0.49274 0.1,0.65762 0.067,0.1628 0.1535,0.27444 0.2599,0.33497 0.014,0.005 0.022,0.0155 0.022,0.0343 0,0.0229 -0.014,0.0366 -0.041,0.0408 l -0.022,-0.003 c -0.1231,-0.0668 -0.2307,-0.18582 -0.3224,-0.35696 -0.09,-0.17323 -0.1349,-0.409 -0.1349,-0.70745 v -0.094 c -0.3631,0.61152 -0.5446,1.17825 -0.5446,1.70003 0,0.39028 0.096,0.61981 0.2881,0.68867 0.054,0.006 0.1055,0.0148 0.1534,0.0253 0.2755,-0.0146 0.5466,-0.15653 0.8137,-0.42577 0.2673,-0.26923 0.5094,-0.60321 0.7266,-1.00186 0.219,-0.40073 0.3943,-0.80358 0.5257,-1.20848 0.1337,-0.40699 0.2006,-0.74097 0.2006,-1.00186 0,-0.23376 -0.047,-0.42074 -0.141,-0.56057 -0.094,-0.13977 -0.2253,-0.20959 -0.3943,-0.20965 z m 7.2289,1.01739 c -0.071,0.13149 -0.1816,0.28912 -0.3319,0.47279 0.025,0 0.046,-8.4e-4 0.062,-0.003 h 0.1286 z m -3.9164,1.70629 c -0.077,0 -0.1357,0.0543 -0.1753,0.16284 0.054,-0.002 0.1063,-0.0137 0.1564,-0.0345 0.05,-0.0208 0.075,-0.0533 0.075,-0.0971 0,-0.0208 -0.018,-0.0312 -0.056,-0.0312 z m -2.5108,0.0632 c -0.066,0.11577 -0.1093,0.21208 -0.1093,0.27177 0,0.0418 0.029,0.0628 0.088,0.0628 0.01,0 0.011,-0.003 0.015,-0.004 0,-0.10397 0,-0.22783 0.01,-0.33129 z m -2.4644,3.69211 c 0.01,1.2e-4 0.014,9.1e-4 0.02,0.005 0.01,0.003 0.012,0.006 0.016,0.0119 0,9.1e-4 0,0.003 0,0.005 4e-4,9e-4 3e-4,0.003 0,0.004 -2e-4,9.1e-4 0,0.003 0,0.004 0,0.002 0,0.004 -0.01,0.005 -0.01,0.002 -0.01,0.002 -0.014,0.004 -0.01,0.002 -0.012,0.005 -0.015,0.01 0,0.005 -0.01,0.0108 -0.01,0.0168 0,0.006 0,0.0121 0,0.0179 0,0.005 0.01,0.011 0.011,0.0151 0.01,0.008 0.022,0.0126 0.034,0.0125 l -0.9669,0.31836 c -0.01,0.006 -0.015,0.013 -0.022,0.0205 -0.028,0.032 -0.044,0.0725 -0.063,0.11086 -0.019,0.0383 -0.042,0.0769 -0.078,0.0996 -0.018,0.0113 -0.039,0.0182 -0.061,0.0177 -0.022,-4.1e-4 -0.043,-0.009 -0.057,-0.0244 -0.01,-0.008 -0.013,-0.0174 -0.015,-0.0276 0,-0.0102 0,-0.0213 0,-0.0317 0,-0.0103 0.01,-0.0198 0.015,-0.0272 0.01,-0.007 0.018,-0.0123 0.028,-0.0136 0.01,-8.4e-4 0.014,-1.9e-4 0.021,2.1e-4 0.01,4e-4 0.014,4.2e-4 0.021,-9e-4 0,-8.5e-4 0.01,-0.002 0.01,-0.005 0,-0.002 0.01,-0.005 0.01,-0.008 0,-0.003 0,-0.006 0,-0.0101 -4e-4,-0.004 0,-0.007 0,-0.009 0,-0.002 0,-0.004 -0.01,-0.005 -0.014,-0.006 -0.028,-0.007 -0.043,-0.006 l -0.057,0.0188 c -0.026,0.0147 -0.05,0.0342 -0.074,0.0514 -0.078,0.0536 -0.1723,0.0777 -0.2539,0.12531 -0.048,0.0283 -0.092,0.0644 -0.1406,0.0921 -0.03,0.0171 -0.062,0.0308 -0.096,0.0401 -0.094,0.0261 -0.1976,0.0155 -0.2842,-0.0294 l 0.849,-0.27953 c 0,-9.1e-4 0,-0.003 0.01,-0.004 0.014,-0.007 0.03,-0.0129 0.046,-0.0149 0,-1.9e-4 0,1.1e-4 0.01,0 l 0.2466,-0.0814 c 0.028,-0.024 0.062,-0.0409 0.098,-0.0535 0.044,-0.016 0.091,-0.0261 0.1361,-0.042 0.073,-0.026 0.1395,-0.0665 0.2086,-0.10137 0.063,-0.0321 0.1294,-0.0595 0.1973,-0.0809 0.033,-0.0103 0.066,-0.0191 0.098,-0.0314 0.033,-0.0123 0.063,-0.0285 0.089,-0.0516 0.02,-0.0182 0.037,-0.0408 0.061,-0.0548 0.012,-0.007 0.025,-0.0114 0.039,-0.0112 z" /></g></svg>
